# xmcd CD database file
#
# Track frame offsets:
#	150
#	13528
#	25317
#	38978
#	51562
#	68660
#	76127
#	90798
#	106117
#	119962
#	136631
#	150638
#	158464
#	173370
#	183240
#	194898
#	210671
#	228376
#
# Disc length: 3318 seconds
#
# Revision: 0
# Processed by: cddbd v1.5.1PL0 Copyright (c) Steve Scherf et al.
# Submitted via: ACXtractor (MTCDDB.DLL V2003.07.15)
#
DISCID=de0cf412
DTITLE=Various Artist - Country Legends Homecoming
DYEAR=2000
DGENRE=Country
TTITLE0=Whiskey River
TTITLE1=Two Sleepy People
TTITLE2=500 Miles Away From Home
TTITLE3=Why Me
TTITLE4=Baby Doll
TTITLE5=Dream Baby
TTITLE6=Five Dollar Fine
TTITLE7=Help Me Make It Through The Night
TTITLE8=But Love Me
TTITLE9=Love In The Hot Afternoon
TTITLE10=Another Somebody Done Somebody Wrong Song
TTITLE11=Tomorrow Never Comes
TTITLE12=Old Slew Foot
TTITLE13=I've Been To Georgia On A Fast Train
TTITLE14=Honky Tonk Heroes
TTITLE15=Coca Cola Cowboy
TTITLE16=Under Your Spell Again
TTITLE17=Medley: Room Full Of Roses/I Overlooked An Orchid/The Window Up Above
EXTD=ID3G:   2 YEAR: 2000
EXTT0=Willie Nelson
EXTT1=Willie Nelson and Crystal Gayle
EXTT2=Bobby Bare
EXTT3=Kris Kristofferson, Willie Nelson, Janie Fricke
EXTT4=Barbara Fairchild
EXTT5=Glen Campbell
EXTT6=The Geezinslaws
EXTT7=Kris Kristofferson and Lorrie Morgan
EXTT8=Janie Fricke
EXTT9=Gene Watson
EXTT10=B. J. Thomas
EXTT11=B. J. Thomas
EXTT12=Porter Wagoner
EXTT13=Billy Joe Shaver
EXTT14=Billy Joe Shaver
EXTT15=Mel Tillis
EXTT16=Barbara Fairchild
EXTT17=Mickey Gilley
PLAYORDER=
